# File created by Blade
# Date/Time:  Tue Sep 30 19:36:50 2014
#---------------------------------------------------------
:version 1.10
:name HOM
:units
  mass 1.0
  length 1.000000
  angle deg
:documentation
     Acclaim Skeleton File
:root
   axis xyz
   order TX TY TZ RX RY RZ
   position 0.000000 0.000000 0.000000
   orientation 0 0 0
:bonedata
   begin
      id 1
      name Spine_dum
      direction 0.000000 1.000000 0.000000
      length 3.241213
      axis 0.0 0.0 0.0 xyz
   end
   begin
      id 2
      name LeftUpLeg_dum
      direction 1.000000 0.000000 0.000000
      length 3.434019
      axis 0.0 0.0 0.0 xyz
   end
   begin
      id 3
      name RightUpLeg_dum
      direction -1.000000 0.000000 0.000000
      length 3.434019
      axis 0.0 0.0 0.0 xyz
   end
   begin
      id 4
      name Spine
      direction 0.000000 1.000000 0.000000
      length 0.000000
      axis 0.0 0.0 0.0 xyz
      dof rx ry rz
   end
   begin
      id 5
      name Spine_dum1
      direction 0.000000 1.000000 0.000000
      length 18.382958
      axis 0.0 0.0 0.0 xyz
   end
   begin
      id 6
      name Spine_dum2
      direction 0.000000 1.000000 0.000000
      length 12.828261
      axis 0.0 0.0 0.0 xyz
   end
   begin
      id 7
      name Spine_dum3
      direction 0.000000 1.000000 0.000000
      length 12.828261
      axis 0.0 0.0 0.0 xyz
   end
   begin
      id 8
      name Head
      direction 0.000000 1.000000 0.000000
      length 4.527550
      axis 0.0 0.0 0.0 xyz
      dof rx ry rz
   end
   begin
      id 9
      name LeftShoulder
      direction 1.000000 0.000000 0.000000
      length 7.748055
      axis 0.0 0.0 -90.0 xyz
      dof rx ry rz
   end
   begin
      id 10
      name LeftArm
      direction 1.000000 0.000000 0.000000
      length 10.635614
      axis 0.0 0.0 -90.0 xyz
      dof rx ry rz
   end
   begin
      id 11
      name LeftForeArm
      direction 1.000000 0.000000 0.000000
      length 8.346755
      axis 0.0 0.0 -90.0 xyz
      dof ry rz rx
   end
   begin
      id 12
      name LeftHand
      direction 0.000000 0.000000 0.000000
      length 0.000000
      axis 0.0 0.0 -90.0 xyz
      dof rx ry rz
   end
   begin
      id 13
      name LeftHand_dum1
      direction 0.000000 0.000000 0.000000
      length 0.000000
      axis 0.0 0.0 -90.0 xyz
   end
   begin
      id 14
      name LeftHand_dum2
      direction 1.000000 0.000000 0.000000
      length 3.937000
      axis 0.0 0.0 -90.0 xyz
   end
   begin
      id 15
      name LeftHandThumb1
      direction 0.000000 0.000000 1.000000
      length 3.937000
      axis 0.0 0.0 -90.0 xyz
      dof rx rz ry
   end
   begin
      id 16
      name RightShoulder
      direction -1.000000 0.000000 0.000000
      length 7.748055
      axis 0.0 0.0 90.0 xyz
      dof rx ry rz
   end
   begin
      id 17
      name RightArm
      direction -1.000000 0.000000 0.000000
      length 10.635614
      axis 0.0 0.0 90.0 xyz
      dof rx ry rz
   end
   begin
      id 18
      name RightForeArm
      direction -1.000000 0.000000 0.000000
      length 8.346755
      axis 0.0 0.0 90.0 xyz
      dof ry rz rx
   end
   begin
      id 19
      name RightHand
      direction 0.000000 0.000000 0.000000
      length 0.000000
      axis 0.0 0.0 90.0 xyz
      dof rx ry rz
   end
   begin
      id 20
      name RightHand_dum1
      direction 0.000000 0.000000 0.000000
      length 0.000000
      axis 0.0 0.0 90.0 xyz
   end
   begin
      id 21
      name RightHand_dum2
      direction -1.000000 0.000000 0.000000
      length 3.937000
      axis 0.0 0.0 90.0 xyz
   end
   begin
      id 22
      name RightHandThumb1
      direction 0.000000 0.000000 1.000000
      length 3.937000
      axis 0.0 0.0 90.0 xyz
      dof rx rz ry
   end
   begin
      id 23
      name LeftUpLeg
      direction 0.000000 -1.000000 0.000000
      length 15.713025
      axis 0.0 0.0 0.0 xyz
      dof rx ry rz
   end
   begin
      id 24
      name LeftLeg
      direction 0.000000 -1.000000 0.000000
      length 14.435119
      axis 0.0 0.0 0.0 xyz
      dof rx ry rz
   end
   begin
      id 25
      name LeftFoot
      direction 0.000000 -0.258819 0.965926
      length 4.938895
      axis 15.0 0.0 0.0 xyz
      dof rx ry rz
   end
   begin
      id 26
      name LeftToeBase
      direction 0.000000 0.000000 1.000000
      length 2.952750
      axis 0.0 0.0 0.0 xyz
      dof rx ry rz
   end
   begin
      id 27
      name RightUpLeg
      direction 0.000000 -1.000000 0.000000
      length 15.713025
      axis 0.0 0.0 0.0 xyz
      dof rx ry rz
   end
   begin
      id 28
      name RightLeg
      direction 0.000000 -1.000000 0.000000
      length 14.435119
      axis 0.0 0.0 0.0 xyz
      dof rx ry rz
   end
   begin
      id 29
      name RightFoot
      direction 0.000000 -0.258819 0.965926
      length 4.938895
      axis 15.0 0.0 0.0 xyz
      dof rx ry rz
   end
   begin
      id 30
      name RightToeBase
      direction 0.000000 0.000000 1.000000
      length 2.952750
      axis 0.0 0.0 0.0 xyz
      dof rx ry rz
   end
:hierarchy
   begin
      root Spine_dum LeftUpLeg_dum RightUpLeg_dum
      Spine_dum Spine
      LeftUpLeg_dum LeftUpLeg
      RightUpLeg_dum RightUpLeg
      Spine Spine_dum1 Spine_dum2 Spine_dum3
      Spine_dum1 Head
      Spine_dum2 LeftShoulder
      Spine_dum3 RightShoulder
      LeftShoulder LeftArm
      LeftArm LeftForeArm
      LeftForeArm LeftHand
      LeftHand LeftHand_dum1 LeftHand_dum2
      LeftHand_dum1 LeftHandThumb1
      RightShoulder RightArm
      RightArm RightForeArm
      RightForeArm RightHand
      RightHand RightHand_dum1 RightHand_dum2
      RightHand_dum1 RightHandThumb1
      LeftUpLeg LeftLeg
      LeftLeg LeftFoot
      LeftFoot LeftToeBase
      RightUpLeg RightLeg
      RightLeg RightFoot
      RightFoot RightToeBase
   end

# File created by Blade
# Date/Time:  Tue Sep 23 19:06:47 2014
# Frame Rate: 120.000 fps
#------------------------------------------------------
:FULLY-SPECIFIED
:DEGREES
70
root -1.205213 32.445948 -3.888705 32.310978 5.197765 0.314180
Spine -37.948300 -4.191414 2.740318
Head 9.044085 -2.127412 -5.781542
LeftShoulder -19.937880 39.594199 23.289380
LeftArm 55.675171 -38.887174 -49.672046
LeftForeArm 92.989037 -0.000000 -10.651531
LeftHand -8.487094 -0.000000 60.757382
LeftHandThumb1 -26.253704 0.000000 33.147579
RightShoulder -16.655721 -38.745850 -24.366925
RightArm 49.777982 24.326965 50.448735
RightForeArm 14.976838 -0.000000 -3.614727
RightHand 9.368363 -0.000000 4.927737
RightHandThumb1 -24.326973 -0.000000 -32.862282
LeftUpLeg -28.551579 -1.033495 0.473423
LeftLeg 1.583662 -0.000000 -0.000000
LeftFoot -7.146523 -2.952847 -1.220891
LeftToeBase 5.884374 -0.000000 -0.000000
RightUpLeg -26.973590 -8.251275 4.185708
RightLeg -2.326039 -0.000000 0.000000
RightFoot -6.877641 -2.002911 0.582662
RightToeBase 11.973519 -0.000000 -0.000000
71
root -1.179178 32.447446 -3.896304 32.261391 5.114808 0.292418
Spine -37.915391 -4.109508 2.697685
Head 9.072424 -2.131206 -5.789324
LeftShoulder -19.871341 39.831218 23.117128
LeftArm 55.875357 -38.486724 -50.029993
LeftForeArm 92.796618 0.000000 -10.434266
LeftHand -8.049297 0.000000 60.526922
LeftHandThumb1 -26.253704 0.000000 33.147579
RightShoulder -16.399479 -38.811515 -24.383937
RightArm 50.148613 24.028198 50.941331
RightForeArm 15.186309 -0.000000 -4.038630
RightHand 9.106394 0.000000 5.606724
RightHandThumb1 -24.326973 -0.000000 -32.862282
LeftUpLeg -28.541093 -1.037204 0.432144
LeftLeg 1.659035 -0.000000 -0.000000
LeftFoot -7.180686 -2.867737 -1.194136
LeftToeBase 5.879869 -0.000000 -0.000000
RightUpLeg -27.049144 -8.282765 4.165087
RightLeg -2.122441 -0.000000 0.000000
RightFoot -6.956703 -1.919748 0.594287
RightToeBase 12.022861 -0.000000 -0.000000
72
root -1.150441 32.448257 -3.901799 32.135662 5.035790 0.272215
Spine -37.806259 -4.050789 2.669670
Head 9.110296 -2.085806 -5.775739
LeftShoulder -19.763317 40.002107 23.014588
LeftArm 55.906602 -37.885596 -50.168733
LeftForeArm 92.725333 0.000000 -10.377906
LeftHand -8.005148 0.000000 60.459212
LeftHandThumb1 -26.253704 0.000000 33.147579
RightShoulder -16.097480 -38.888857 -24.423231
RightArm 50.546488 23.787956 51.531526
RightForeArm 15.316609 -0.000000 -4.378888
RightHand 8.697880 -0.000000 5.845506
RightHandThumb1 -24.326973 -0.000000 -32.862282
LeftUpLeg -28.452217 -1.036899 0.376218
LeftLeg 1.739779 -0.000000 -0.000000
LeftFoot -7.219363 -2.787176 -1.079787
LeftToeBase 5.805480 -0.000000 -0.000000
RightUpLeg -27.023856 -8.323135 4.124760
RightLeg -1.959821 -0.000000 0.000000
RightFoot -6.997591 -1.839158 0.590174
RightToeBase 11.950144 -0.000000 -0.000000
73
root -1.121052 32.449877 -3.909828 32.022743 4.932092 0.240401
Spine -37.708078 -3.978547 2.644812
Head 9.136759 -2.148649 -5.745688
LeftShoulder -19.686876 40.243116 22.848128
LeftArm 56.092646 -37.454172 -50.521810
LeftForeArm 92.763569 0.000000 -10.241145
LeftHand -8.071706 -0.000000 60.323118
LeftHandThumb1 -26.253704 0.000000 33.147579
RightShoulder -15.767247 -38.925223 -24.479262
RightArm 50.940962 23.544652 52.158167
RightForeArm 15.461048 -0.000000 -4.702023
RightHand 8.202926 0.000000 6.401276
RightHandThumb1 -24.326973 -0.000000 -32.862282
LeftUpLeg -28.382651 -1.030878 0.329673
LeftLeg 1.829120 -0.000000 -0.000000
LeftFoot -7.269940 -2.675634 -0.988717
LeftToeBase 5.796704 -0.000000 -0.000000
RightUpLeg -27.003439 -8.250115 4.035417
RightLeg -1.812663 -0.000000 0.000000
RightFoot -7.025178 -1.840172 0.686535
RightToeBase 12.004301 -0.000000 -0.000000
74
root -1.092960 32.453128 -3.919031 31.915113 4.820097 0.183083
Spine -37.600009 -3.879174 2.622098
Head 9.130703 -2.124505 -5.695533
LeftShoulder -19.614211 40.402231 22.671117
LeftArm 56.207125 -36.875597 -50.591289
LeftForeArm 92.845842 -0.000000 -10.407511
LeftHand -8.340005 -0.000000 60.600675
LeftHandThumb1 -26.253704 0.000000 33.147579
RightShoulder -15.486089 -38.980217 -24.497564
RightArm 51.312656 23.214135 52.700816
RightForeArm 15.659669 -0.000000 -5.008471
RightHand 7.705851 -0.000000 7.072569
RightHandThumb1 -24.326973 -0.000000 -32.862282
LeftUpLeg -28.323258 -1.008075 0.304160
LeftLeg 1.921301 -0.000000 -0.000000
LeftFoot -7.315823 -2.569796 -0.909159
LeftToeBase 5.832190 -0.000000 -0.000000
RightUpLeg -27.059103 -8.277382 4.029617
RightLeg -1.547701 -0.000000 0.000000
RightFoot -7.093137 -1.690356 0.799431
RightToeBase 12.008240 -0.000000 -0.000000
75
root -1.061236 32.454957 -3.927647 31.757328 4.706583 0.182573
Spine -37.426945 -3.826599 2.544292
Head 9.100986 -1.979122 -5.638868
LeftShoulder -19.593923 40.624527 22.531883
LeftArm 56.517623 -36.649546 -51.361828
LeftForeArm 93.051578 -0.000000 -9.979207
LeftHand -7.899574 -0.000000 60.362802
LeftHandThumb1 -26.253704 0.000000 33.147579
RightShoulder -15.201366 -39.066680 -24.458463
RightArm 51.718143 22.950547 53.243577
RightForeArm 15.897129 0.000000 -5.299737
RightHand 7.290520 -0.000000 7.605472
RightHandThumb1 -24.326973 -0.000000 -32.862282
LeftUpLeg -28.205493 -1.033753 0.233641
LeftLeg 2.003138 -0.000000 -0.000000
LeftFoot -7.431662 -2.444063 -1.082632
LeftToeBase 6.237115 -0.000000 -0.000000
RightUpLeg -27.012565 -8.256195 3.930903
RightLeg -1.369362 -0.000000 0.000000
RightFoot -7.153003 -1.710349 0.782076
RightToeBase 12.052603 -0.000000 -0.000000
